<svg id="visual" viewBox="0 0 900 600" width="900" height="600" xmlns="http://www.w3.org/2000/svg" xmlns:xlink="http://www.w3.org/1999/xlink" version="1.1"><rect x="0" y="0" width="900" height="600" fill="#001220"></rect><defs><linearGradient id="grad1_0" x1="33.3%" y1="0%" x2="100%" y2="100%"><stop offset="20%" stop-color="#fbae3c" stop-opacity="1"></stop><stop offset="80%" stop-color="#fbae3c" stop-opacity="1"></stop></linearGradient></defs><defs><linearGradient id="grad1_1" x1="33.3%" y1="0%" x2="100%" y2="100%"><stop offset="20%" stop-color="#fbae3c" stop-opacity="1"></stop><stop offset="80%" stop-color="#eb7458" stop-opacity="1"></stop></linearGradient></defs><defs><linearGradient id="grad1_2" x1="33.3%" y1="0%" x2="100%" y2="100%"><stop offset="20%" stop-color="#b84e6c" stop-opacity="1"></stop><stop offset="80%" stop-color="#eb7458" stop-opacity="1"></stop></linearGradient></defs><defs><linearGradient id="grad1_3" x1="33.3%" y1="0%" x2="100%" y2="100%"><stop offset="20%" stop-color="#b84e6c" stop-opacity="1"></stop><stop offset="80%" stop-color="#713c69" stop-opacity="1"></stop></linearGradient></defs><defs><linearGradient id="grad1_4" x1="33.3%" y1="0%" x2="100%" y2="100%"><stop offset="20%" stop-color="#2d2b4c" stop-opacity="1"></stop><stop offset="80%" stop-color="#713c69" stop-opacity="1"></stop></linearGradient></defs><defs><linearGradient id="grad1_5" x1="33.3%" y1="0%" x2="100%" y2="100%"><stop offset="20%" stop-color="#2d2b4c" stop-opacity="1"></stop><stop offset="80%" stop-color="#001220" stop-opacity="1"></stop></linearGradient></defs><defs><linearGradient id="grad2_0" x1="0%" y1="0%" x2="66.7%" y2="100%"><stop offset="20%" stop-color="#fbae3c" stop-opacity="1"></stop><stop offset="80%" stop-color="#fbae3c" stop-opacity="1"></stop></linearGradient></defs><defs><linearGradient id="grad2_1" x1="0%" y1="0%" x2="66.7%" y2="100%"><stop offset="20%" stop-color="#eb7458" stop-opacity="1"></stop><stop offset="80%" stop-color="#fbae3c" stop-opacity="1"></stop></linearGradient></defs><defs><linearGradient id="grad2_2" x1="0%" y1="0%" x2="66.7%" y2="100%"><stop offset="20%" stop-color="#eb7458" stop-opacity="1"></stop><stop offset="80%" stop-color="#b84e6c" stop-opacity="1"></stop></linearGradient></defs><defs><linearGradient id="grad2_3" x1="0%" y1="0%" x2="66.7%" y2="100%"><stop offset="20%" stop-color="#713c69" stop-opacity="1"></stop><stop offset="80%" stop-color="#b84e6c" stop-opacity="1"></stop></linearGradient></defs><defs><linearGradient id="grad2_4" x1="0%" y1="0%" x2="66.7%" y2="100%"><stop offset="20%" stop-color="#713c69" stop-opacity="1"></stop><stop offset="80%" stop-color="#2d2b4c" stop-opacity="1"></stop></linearGradient></defs><defs><linearGradient id="grad2_5" x1="0%" y1="0%" x2="66.7%" y2="100%"><stop offset="20%" stop-color="#001220" stop-opacity="1"></stop><stop offset="80%" stop-color="#2d2b4c" stop-opacity="1"></stop></linearGradient></defs><g transform="translate(900, 0)"><path d="M0 297.5C-26.5 296.7 -53.1 295.9 -77 287.3C-100.9 278.7 -122.3 262.2 -141.5 245.1C-160.7 227.9 -177.8 210.1 -190.9 190.9C-204 171.8 -213 151.3 -230.4 133C-247.7 114.7 -273.3 98.4 -285.9 76.6C-298.5 54.8 -298 27.4 -297.5 0L0 0Z" fill="#131f37"></path><path d="M0 247.9C-22.1 247.2 -44.2 246.6 -64.2 239.4C-84.1 232.3 -101.9 218.5 -117.9 204.2C-133.9 189.9 -148.2 175.1 -159.1 159.1C-170 143.1 -177.5 126.1 -192 110.8C-206.4 95.6 -227.8 82 -238.3 63.8C-248.7 45.7 -248.3 22.8 -247.9 0L0 0Z" fill="#4d345e"></path><path d="M0 198.3C-17.7 197.8 -35.4 197.3 -51.3 191.5C-67.3 185.8 -81.5 174.8 -94.3 163.4C-107.2 151.9 -118.6 140 -127.3 127.3C-136 114.5 -142 100.9 -153.6 88.7C-165.1 76.4 -182.2 65.6 -190.6 51.1C-199 36.5 -198.6 18.3 -198.3 0L0 0Z" fill="#96446e"></path><path d="M0 148.7C-13.3 148.3 -26.5 148 -38.5 143.7C-50.5 139.4 -61.1 131.1 -70.7 122.5C-80.4 114 -88.9 105 -95.5 95.5C-102 85.9 -106.5 75.7 -115.2 66.5C-123.9 57.3 -136.7 49.2 -143 38.3C-149.2 27.4 -149 13.7 -148.7 0L0 0Z" fill="#d55e64"></path><path d="M0 99.2C-8.8 98.9 -17.7 98.6 -25.7 95.8C-33.6 92.9 -40.8 87.4 -47.2 81.7C-53.6 76 -59.3 70 -63.6 63.6C-68 57.3 -71 50.4 -76.8 44.3C-82.6 38.2 -91.1 32.8 -95.3 25.5C-99.5 18.3 -99.3 9.1 -99.2 0L0 0Z" fill="#f88f4a"></path><path d="M0 49.6C-4.4 49.4 -8.8 49.3 -12.8 47.9C-16.8 46.5 -20.4 43.7 -23.6 40.8C-26.8 38 -29.6 35 -31.8 31.8C-34 28.6 -35.5 25.2 -38.4 22.2C-41.3 19.1 -45.6 16.4 -47.7 12.8C-49.7 9.1 -49.7 4.6 -49.6 0L0 0Z" fill="#fbae3c"></path></g><g transform="translate(0, 600)"><path d="M0 -297.5C23.2 -281 46.5 -264.5 67.3 -251.1C88.1 -237.8 106.5 -227.5 126.5 -219.1C146.5 -210.7 168.2 -204.2 194.5 -194.5C220.7 -184.7 251.6 -171.7 257.6 -148.7C263.6 -125.7 244.8 -92.7 247.3 -66.3C249.8 -39.8 273.6 -19.9 297.5 0L0 0Z" fill="#131f37"></path><path d="M0 -247.9C19.4 -234.2 38.7 -220.4 56.1 -209.3C73.4 -198.1 88.7 -189.6 105.4 -182.6C122.1 -175.6 140.2 -170.2 162 -162C183.9 -153.9 209.7 -143.1 214.7 -123.9C219.7 -104.8 204 -77.3 206.1 -55.2C208.1 -33.2 228 -16.6 247.9 0L0 0Z" fill="#4d345e"></path><path d="M0 -198.3C15.5 -187.3 31 -176.3 44.9 -167.4C58.7 -158.5 71 -151.7 84.3 -146.1C97.7 -140.5 112.1 -136.1 129.6 -129.6C147.1 -123.1 167.7 -114.5 171.7 -99.2C175.7 -83.8 163.2 -61.8 164.9 -44.2C166.5 -26.5 182.4 -13.3 198.3 0L0 0Z" fill="#96446e"></path><path d="M0 -148.7C11.6 -140.5 23.2 -132.3 33.6 -125.6C44.1 -118.9 53.2 -113.7 63.2 -109.6C73.3 -105.4 84.1 -102.1 97.2 -97.2C110.4 -92.4 125.8 -85.9 128.8 -74.4C131.8 -62.9 122.4 -46.4 123.6 -33.1C124.9 -19.9 136.8 -9.9 148.7 0L0 0Z" fill="#d55e64"></path><path d="M0 -99.2C7.7 -93.7 15.5 -88.2 22.4 -83.7C29.4 -79.3 35.5 -75.8 42.2 -73C48.8 -70.2 56.1 -68.1 64.8 -64.8C73.6 -61.6 83.9 -57.2 85.9 -49.6C87.9 -41.9 81.6 -30.9 82.4 -22.1C83.3 -13.3 91.2 -6.6 99.2 0L0 0Z" fill="#f88f4a"></path><path d="M0 -49.6C3.9 -46.8 7.7 -44.1 11.2 -41.9C14.7 -39.6 17.7 -37.9 21.1 -36.5C24.4 -35.1 28 -34 32.4 -32.4C36.8 -30.8 41.9 -28.6 42.9 -24.8C43.9 -21 40.8 -15.5 41.2 -11C41.6 -6.6 45.6 -3.3 49.6 0L0 0Z" fill="#fbae3c"></path></g></svg>